<svg width="24" height="24" viewBox="0 0 24 24" fill="none" xmlns="http://www.w3.org/2000/svg">
<path d="M12.0068 2.16184C15.2148 2.16184 15.5945 2.17609 16.856 2.23235C18.0289 2.28411 18.6615 2.48064 19.084 2.64491C19.6423 2.86095 20.0453 3.12349 20.4625 3.54055C20.885 3.96287 21.1424 4.36118 21.363 4.91927C21.5274 5.34159 21.724 5.97843 21.7757 7.14637C21.832 8.41257 21.8463 8.79212 21.8463 11.9944C21.8463 15.1966 21.832 15.5807 21.7757 16.8424C21.724 18.0148 21.5274 18.6472 21.363 19.0695C21.1469 19.6276 20.885 20.0304 20.467 20.4474C20.0445 20.8698 19.6461 21.1271 19.0885 21.3476C18.666 21.5119 18.0281 21.7084 16.8605 21.7602C15.5938 21.8164 15.2141 21.8307 12.0105 21.8307C8.80695 21.8307 8.42274 21.8164 7.16053 21.7602C5.98762 21.7084 5.35501 21.5119 4.93252 21.3476C4.37421 21.1316 3.97123 20.8698 3.55325 20.4519C3.13076 20.0296 2.87337 19.6313 2.65274 19.074C2.4884 18.6517 2.29179 18.0141 2.24001 16.8469C2.18373 15.5807 2.16947 15.2011 2.16947 11.9989C2.16947 8.79663 2.18373 8.41257 2.24001 7.15087C2.29179 5.97843 2.4884 5.34609 2.65274 4.92377C2.86886 4.36568 3.13151 3.96287 3.54875 3.54505C3.97123 3.12274 4.36971 2.86545 4.92802 2.64491C5.35051 2.48064 5.98762 2.28411 7.15603 2.23235C8.41749 2.17609 8.7987 2.16184 12.0068 2.16184ZM12.0068 0.000750117C8.74692 0.000750117 8.33944 0.0150023 7.05847 0.0712611C5.78275 0.12752 4.90551 0.333802 4.14608 0.629348C3.35364 0.938397 2.68276 1.34646 2.01713 2.01707C1.34626 2.68317 0.938028 3.35302 0.628854 4.14065C0.333187 4.90502 0.126821 5.77665 0.0705397 7.05185C0.014258 8.3368 0 8.74412 0 12.0026C0 15.2611 0.014258 15.6684 0.0705397 16.9489C0.126821 18.2241 0.333187 19.101 0.628854 19.8601C0.938778 20.6522 1.34626 21.3228 2.01713 21.9882C2.68276 22.6535 3.35364 23.0669 4.14158 23.3714C4.90626 23.6669 5.77825 23.8732 7.05397 23.9295C8.33419 23.9857 8.74242 24 12.0023 24C15.2621 24 15.6703 23.9857 16.9505 23.9295C18.2263 23.8732 19.1035 23.6669 19.8629 23.3714C20.6509 23.0669 21.3217 22.6543 21.9874 21.9882C22.653 21.3221 23.0665 20.6522 23.3711 19.8646C23.6668 19.1002 23.8732 18.2286 23.9295 16.9534C23.9857 15.6737 24 15.2656 24 12.0071C24 8.74862 23.9857 8.3413 23.9295 7.06085C23.8732 5.78565 23.6668 4.90877 23.3711 4.14965C23.0755 3.35227 22.6672 2.68242 21.9971 2.01632C21.3315 1.35096 20.6606 0.937647 19.8727 0.633099C19.108 0.337553 18.236 0.131271 16.9603 0.0750117C15.6756 0.0142522 15.2673 0 12.0075 0L12.0068 0.000750117Z" fill="black"/>
<path d="M12 6C8.68792 6 6 8.68719 6 12C6 15.3128 8.68719 18 12 18C15.3128 18 18 15.3128 18 12C18 8.68792 15.3128 6 12 6ZM12 15.8917C9.85083 15.8917 8.10829 14.1492 8.10829 12C8.10829 9.85083 9.85083 8.10829 12 8.10829C14.1492 8.10829 15.8917 9.85083 15.8917 12C15.8917 14.1492 14.1492 15.8917 12 15.8917Z" fill="black"/>
<path d="M20 5.5C20 6.32856 19.3286 7 18.5 7C17.6714 7 17 6.32856 17 5.5C17 4.67144 17.6714 4 18.5 4C19.3286 4 20 4.67144 20 5.5Z" fill="black"/>
</svg>
